# Created by FreeCAD <http://www.freecadweb.org>
v -79.984589 0.000000 -10.002276
v 82.025650 -2.000000 -10.002276
v -79.984589 -2.000000 -10.002276
v 82.025650 0.000000 -10.002276
v 82.025650 0.000000 -8.002180
v 82.025650 -2.000000 -8.002180
v -79.984589 -2.000000 -8.002180
v -79.984589 0.000000 -8.002180
vn 0.000000 0.000000 -1.000000
vn 0.000000 0.000000 -1.000000
vn 1.000000 0.000000 0.000000
vn 1.000000 0.000000 0.000000
vn 0.000000 0.000000 1.000000
vn 0.000000 0.000000 1.000000
vn -1.000000 -0.000000 -0.000000
vn -1.000000 0.000000 0.000000
vn 0.000000 1.000000 0.000000
vn 0.000000 1.000000 0.000000
vn 0.000000 -1.000000 0.000000
vn 0.000000 -1.000000 0.000000
f 1//1 2//1 3//1
f 1//2 4//2 2//2
f 4//3 5//3 2//3
f 2//4 5//4 6//4
f 5//5 7//5 6//5
f 5//6 8//6 7//6
f 8//7 1//7 7//7
f 7//8 1//8 3//8
f 5//9 4//9 8//9
f 8//10 4//10 1//10
f 2//11 6//11 7//11
f 2//12 7//12 3//12
